<?xml version="1.0" encoding="UTF-8"?>
<svg width="56px" height="57px" viewBox="0 0 56 57" version="1.1" xmlns="http://www.w3.org/2000/svg" xmlns:xlink="http://www.w3.org/1999/xlink">
    <title>Logo</title>
    <g id="ðŸŒ-Web" stroke="none" stroke-width="1" fill="none" fill-rule="evenodd">
        <g id="ðŸ–¥-Homepage" transform="translate(-20.000000, -20.000000)" fill="#FFF200">
            <path d="M76.1492537,44.6716418 C76.1577612,44.741403 76.1373433,44.5848657 76.1492537,44.6716418 L76.1492537,44.6716418 Z M76.1492537,47.2238806 C76.1407463,47.3072537 76.1441493,47.1302985 76.1492537,47.2238806 L76.1492537,47.2238806 Z M76.1492537,48.0746269 C76.1557125,48.158 76.1455035,47.9912537 76.1492537,48.0746269 C76.1455035,47.9912537 76.1557125,48.158 76.1492537,48.0746269 L76.1492537,48.0746269 Z M42.119403,76.1492537 C48.3320198,77.6892511 54.9608088,76.7750746 60.8358209,73.5970149 C70.289259,68.1291915 75.4864159,58.1811973 75.2985075,48.0746269 C75.2933121,48.4929507 75.2933121,48.9550989 75.2985075,49.7761194 C75.0203032,48.8606453 74.7073418,48.2871766 74.4477612,48.0746269 C73.6552588,46.6949578 72.772974,45.7672879 71.8955224,45.5223881 C70.7120898,44.6979376 69.4802204,44.4921636 67.641791,44.6716418 C66.8200485,45.1229791 65.4483453,45.7436745 64.238806,47.2238806 C60.9769924,48.8167918 58.6164644,53.5361013 55.7313433,58.2835821 C53.4093193,63.9698572 50.5460553,69.6944236 46.3731343,73.5970149 C44.96602,74.8117879 43.6009756,75.7934313 42.119403,76.1492537 L42.119403,76.1492537 Z M21.7014925,59.9850746 C21.963399,61.0217961 22.3967151,61.9303662 22.5522388,62.5373134 C25.7244467,67.909234 31.2695376,72.2206885 31.0597015,71.8955224 L31.0597015,71.8955224 C33.7983428,73.4151009 36.0800225,73.8166413 37.8656716,73.5970149 C40.0814251,73.1666904 41.8857801,72.1117962 43.8208955,70.1940299 C47.2480658,67.2252543 49.9529056,61.8384883 52.3283582,56.5820896 C55.3524295,51.1194026 58.0369576,45.8245146 61.6865672,42.9701493 C64.0864555,41.6968158 65.9991395,40.8665121 67.641791,40.4179104 C70.504949,39.808215 72.8374079,40.219964 74.4477612,41.2686567 C74.9532088,41.308887 75.1292434,41.4143764 75.2985075,41.2686567 C74.7060832,39.2773651 73.8292953,37.0688931 72.7462687,35.3134328 C68.4500832,27.3876871 61.3443775,22.4739221 53.1791045,20.8507463 L53.1791045,20.8507463 C52.8981005,25.3527623 50.2034165,30.5489667 42.119403,33.6119403 L42.119403,33.6119403 C35.5959272,36.0071932 29.2925333,38.8656161 25.1044776,42.9701493 C21.5097713,47.0325385 19.7189575,52.4056929 21.7014925,59.9850746 L21.7014925,59.9850746 Z M33.6119403,23.4029851 C26.6911295,27.5184605 21.8975865,34.0244371 20,41.2686567 C20.5128612,40.6012042 21.0872658,39.9472356 21.7014925,39.5671642 C26.3902509,34.4997442 33.3207156,31.3748529 40.4179104,28.5074627 L40.4179104,28.5074627 C46.268752,26.6453786 48.3167778,23.1260835 48.9253731,20 C43.8343707,19.8259016 38.6134434,20.9652902 33.6119403,23.4029851 L33.6119403,23.4029851 Z" id="Logo"></path>
        </g>
    </g>
</svg>