<?xml version="1.0" encoding="UTF-8"?>
<svg width="170px" height="40px" viewBox="0 0 170 40" version="1.1" xmlns="http://www.w3.org/2000/svg" xmlns:xlink="http://www.w3.org/1999/xlink">
    <title>SoMe</title>
    <defs>
        <filter color-interpolation-filters="auto" id="filter-1">
            <feColorMatrix in="SourceGraphic" type="matrix" values="0 0 0 0 0.003922 0 0 0 0 0.501961 0 0 0 0 0.788235 0 0 0 1.000000 0"></feColorMatrix>
        </filter>
    </defs>
    <g id="ðŸŒ-Web" stroke="none" stroke-width="1" fill="none" fill-rule="evenodd">
        <g id="ðŸ–¥-Homepage" transform="translate(-1230.000000, -3316.000000)">
            <g id="Footer" transform="translate(0.000000, 3284.000000)">
                <g id="SoMe" transform="translate(1230.000000, 32.000000)" filter="url(#filter-1)">
                    <g>
                        <g id="SoMe-/-Facebook">
                            <path d="M33.9092004,0.833333333 C34.4248823,0.833333333 34.9194446,1.03818051 35.2840959,1.40281355 L35.2840959,1.40281355 L38.5971177,4.71566968 C38.9617928,5.08032655 39.1666667,5.57491833 39.1666667,6.09063391 L39.1666667,6.09063391 L39.1666667,33.9060246 C39.1666667,34.4214675 38.9620088,34.9158207 38.597674,35.2804323 L38.597674,35.2804323 L35.2839937,38.5966299 C34.9192973,38.9616034 34.4244964,39.1666667 33.9085419,39.1666667 L33.9085419,39.1666667 L6.09077467,39.1666667 C5.57427503,39.1666667 5.07899761,38.9611711 4.71421156,38.5955169 L4.71421156,38.5955169 L1.40121467,35.274635 C1.03755987,34.9101147 0.833333333,34.4162383 0.833333333,33.9013404 L0.833333333,33.9013404 L0.833333333,6.09096325 C0.833333333,5.5751113 1.03831526,5.08040025 1.4031606,4.71572079 L1.4031606,4.71572079 L4.71785318,1.40253532 C5.0824818,1.03807249 5.57692484,0.833333333 6.09247036,0.833333333 L6.09247036,0.833333333 Z" id="Path" stroke="#FFFFFF" stroke-width="1.66666667"></path>
                            <path d="M17.0025321,30.9125 L21.3602575,30.9125 L21.3602575,19.9876967 L24.3998764,19.9876967 L24.7235395,16.328896 L21.3555667,16.328896 L21.3555667,14.2461942 C21.3555667,13.3830925 21.5244344,13.0406663 22.3593915,13.0406663 L24.7188488,13.0406663 L24.7188488,9.24583333 L21.6979929,9.24583333 C18.45198,9.24583333 16.9884598,10.6718274 16.9884598,13.4065463 L16.9884598,16.3195145 L14.7181271,16.3195145 L14.7181271,20.020532 L16.983769,20.020532 L16.983769,30.8937369" id="Path" fill="#FFFFFF" fill-rule="nonzero"></path>
                        </g>
                        <g id="SoMe-/-Instagram" transform="translate(65.000000, 0.000000)">
                            <path d="M33.9092004,0.833333333 C34.4248823,0.833333333 34.9194446,1.03818051 35.2840959,1.40281355 L35.2840959,1.40281355 L38.5971177,4.71566968 C38.9617928,5.08032655 39.1666667,5.57491833 39.1666667,6.09063391 L39.1666667,6.09063391 L39.1666667,33.9060246 C39.1666667,34.4214675 38.9620088,34.9158207 38.597674,35.2804323 L38.597674,35.2804323 L35.2839937,38.5966299 C34.9192973,38.9616034 34.4244964,39.1666667 33.9085419,39.1666667 L33.9085419,39.1666667 L6.09077467,39.1666667 C5.57427503,39.1666667 5.07899761,38.9611711 4.71421156,38.5955169 L4.71421156,38.5955169 L1.40121467,35.274635 C1.03755987,34.9101147 0.833333333,34.4162383 0.833333333,33.9013404 L0.833333333,33.9013404 L0.833333333,6.09096325 C0.833333333,5.5751113 1.03831526,5.08040025 1.4031606,4.71572079 L1.4031606,4.71572079 L4.71785318,1.40253532 C5.0824818,1.03807249 5.57692484,0.833333333 6.09247036,0.833333333 L6.09247036,0.833333333 Z" id="Path" stroke="#FFFFFF" stroke-width="1.66666667"></path>
                            <path d="M20.0026027,14.017628 C16.6919502,14.017628 14.0215653,16.6886087 14.0215653,20 C14.0215653,23.3113913 16.6919502,25.982372 20.0026027,25.982372 C23.3132553,25.982372 25.9836401,23.3113913 25.9836401,20 C25.9836401,16.6886087 23.3132553,14.017628 20.0026027,14.017628 Z M20.0026027,23.8893228 C17.8631716,23.8893228 16.1141476,22.1451151 16.1141476,20 C16.1141476,17.8548849 17.8579662,16.1106772 20.0026027,16.1106772 C22.1472393,16.1106772 23.8910578,17.8548849 23.8910578,20 C23.8910578,22.1451151 22.1420338,23.8893228 20.0026027,23.8893228 L20.0026027,23.8893228 Z M27.6233501,13.7729183 C27.6233501,14.5487002 26.9986986,15.1682844 26.2282952,15.1682844 C25.4526864,15.1682844 24.8332404,14.5434936 24.8332404,13.7729183 C24.8332404,13.002343 25.4578918,12.3775522 26.2282952,12.3775522 C26.9986986,12.3775522 27.6233501,13.002343 27.6233501,13.7729183 Z M31.5846812,15.1891108 C31.4961889,13.319945 31.0693437,11.6642493 29.700316,10.3001227 C28.3364938,8.93599613 26.6811675,8.50905575 24.8124187,8.41533713 C22.8864101,8.30599874 17.1135899,8.30599874 15.1875813,8.41533713 C13.3240379,8.50384916 11.6687117,8.93078954 10.299684,10.2949161 C8.93065626,11.6590427 8.50901655,13.3147384 8.41531883,15.1839042 C8.30600483,17.1103425 8.30600483,22.8844509 8.41531883,24.8108892 C8.50381112,26.680055 8.93065626,28.3357507 10.299684,29.6998773 C11.6687117,31.0640039 13.3188325,31.4909443 15.1875813,31.5846629 C17.1135899,31.6940013 22.8864101,31.6940013 24.8124187,31.5846629 C26.6811675,31.4961508 28.3364938,31.0692105 29.700316,29.6998773 C31.0641383,28.3357507 31.4909835,26.680055 31.5846812,24.8108892 C31.6939952,22.8844509 31.6939952,17.1155491 31.5846812,15.1891108 Z M29.0964863,26.8779055 C28.6904629,27.8983971 27.9044432,28.6845922 26.8789738,29.0959128 C25.3433724,29.7050839 21.6995724,29.5645059 20.0026027,29.5645059 C18.305633,29.5645059 14.6566276,29.6998773 13.1262316,29.0959128 C12.1059677,28.6897988 11.3199479,27.9036037 10.9087191,26.8779055 C10.299684,25.3419614 10.4402305,21.6973484 10.4402305,20 C10.4402305,18.3026516 10.3048894,14.652832 10.9087191,13.1220945 C11.3147425,12.1016029 12.1007622,11.3154078 13.1262316,10.9040872 C14.6618331,10.2949161 18.305633,10.4354941 20.0026027,10.4354941 C21.6995724,10.4354941 25.3485778,10.3001227 26.8789738,10.9040872 C27.8992378,11.3102012 28.6852575,12.0963963 29.0964863,13.1220945 C29.7055215,14.6580386 29.5649749,18.3026516 29.5649749,20 C29.5649749,21.6973484 29.7055215,25.347168 29.0964863,26.8779055 Z" id="Shape" fill="#FFFFFF" fill-rule="nonzero"></path>
                        </g>
                        <g id="SoMe-/-Twitter" transform="translate(130.000000, 0.000000)">
                            <path d="M33.9092004,0.833333333 C34.4248823,0.833333333 34.9194446,1.03818051 35.2840959,1.40281355 L35.2840959,1.40281355 L38.5971177,4.71566968 C38.9617928,5.08032655 39.1666667,5.57491833 39.1666667,6.09063391 L39.1666667,6.09063391 L39.1666667,33.9060246 C39.1666667,34.4214675 38.9620088,34.9158207 38.597674,35.2804323 L38.597674,35.2804323 L35.2839937,38.5966299 C34.9192973,38.9616034 34.4244964,39.1666667 33.9085419,39.1666667 L33.9085419,39.1666667 L6.09077467,39.1666667 C5.57427503,39.1666667 5.07899761,38.9611711 4.71421156,38.5955169 L4.71421156,38.5955169 L1.40121467,35.274635 C1.03755987,34.9101147 0.833333333,34.4162383 0.833333333,33.9013404 L0.833333333,33.9013404 L0.833333333,6.09096325 C0.833333333,5.5751113 1.03831526,5.08040025 1.4031606,4.71572079 L1.4031606,4.71572079 L4.71785318,1.40253532 C5.0824818,1.03807249 5.57692484,0.833333333 6.09247036,0.833333333 L6.09247036,0.833333333 Z" id="Path" stroke="#FFFFFF" stroke-width="1.66666667"></path>
                            <path d="M29.1645846,15.2142994 C29.1707538,15.3901218 29.1738384,15.5690287 29.1738384,15.7479356 C29.1738384,22.1879682 24.2733308,28.8491667 16.0726073,28.8491667 C13.5648257,28.8491667 11.1249054,28.133539 9.01411205,26.7793986 C8.96784302,26.7485526 8.94933541,26.6961143 8.96784302,26.6467607 C8.98326603,26.597407 9.03261967,26.566561 9.0850579,26.5727302 C9.43670256,26.6128301 9.80068562,26.6344223 10.1584995,26.6344223 C12.1088935,26.6344223 13.9525602,26.0298402 15.5170705,24.8854528 C13.6447169,24.7250535 12.0360969,23.4603666 11.4546493,21.6527897 C11.4423109,21.6126898 11.4484801,21.57259 11.4762416,21.5448286 C11.5009184,21.5139826 11.5410182,21.5016442 11.5780334,21.5078134 C12.0962466,21.6065206 12.6237136,21.6126898 13.1326729,21.5294056 C11.2020204,20.9279081 9.84448697,19.1209482 9.84448697,17.059817 L9.84448697,16.9981249 C9.84448697,16.9580251 9.86607919,16.9210099 9.90000981,16.9025022 C9.93085584,16.88091 9.97404027,16.88091 10.0079709,16.8994176 C10.5107611,17.1770318 11.0659895,17.3559388 11.6400339,17.4268846 C10.5295771,16.5416038 9.87903452,15.1998018 9.87903452,13.7654618 C9.87903452,12.9357038 10.0980413,12.1244534 10.511378,11.4119103 C10.5298856,11.3779797 10.5607316,11.359472 10.5977468,11.3563874 C10.6316775,11.3502182 10.6686927,11.3687258 10.6902849,11.3964873 C12.9605521,14.1818831 16.3011764,15.8969219 19.8731457,16.117471 C19.8114537,15.81518 19.7806077,15.5067197 19.7806077,15.1951749 C19.7806077,12.616139 21.8787541,10.5158333 24.4568646,10.5158333 C25.7246362,10.5158333 26.9492232,11.0368226 27.8252503,11.9470888 C28.812323,11.743505 29.7562113,11.379522 30.6260691,10.8643934 C30.6630843,10.8397166 30.7155226,10.8428012 30.7525378,10.8705626 C30.7864684,10.898324 30.8018914,10.9476776 30.7864684,10.9908621 C30.4903466,11.9131581 29.913526,12.7182393 29.1423754,13.2981445 C29.8703415,13.1685912 30.5767155,12.9557537 31.2491587,12.6565473 C31.2923432,12.6349551 31.3447814,12.6472935 31.378712,12.6843087 C31.4095581,12.7213239 31.4126427,12.7768468 31.3848812,12.8169466 C30.7710454,13.7330735 30.0122333,14.5258162 29.1269524,15.1704981 L29.1645846,15.2142994 Z" id="Path" fill="#FFFFFF"></path>
                        </g>
                    </g>
                </g>
            </g>
        </g>
    </g>
</svg>